<svg width="16" height="16" fill="none" xmlns="http://www.w3.org/2000/svg"><g clip-path="url(#clip0_5097_323)"><path fill-rule="evenodd" clip-rule="evenodd" d="M0 8a8 8 0 1116 0A8 8 0 010 8zm7.5-6.923c-.67.204-1.335.82-1.887 1.855A7.97 7.97 0 005.145 4H7.5V1.077zM4.09 4H2.255a7.025 7.025 0 013.072-2.472 6.7 6.7 0 00-.597.933c-.247.464-.462.98-.64 1.539zm-.582 3.5h-2.49c.062-.89.291-1.733.656-2.5H3.82c-.18.822-.285 1.659-.312 2.5zM4.847 5H7.5v2.5H4.51A12.5 12.5 0 014.846 5h.001zM8.5 5v2.5h2.99c-.028-.843-.14-1.68-.337-2.5H8.5zM4.51 8.5H7.5V11H4.847a12.5 12.5 0 01-.338-2.5h.001zm3.99 0V11h2.653c.187-.765.306-1.608.338-2.5H8.5zM5.145 12H7.5v2.923c-.67-.204-1.335-.82-1.887-1.855A7.972 7.972 0 015.145 12zm.182 2.472a6.694 6.694 0 01-.597-.933A9.267 9.267 0 014.09 12H2.255a7.024 7.024 0 003.072 2.472zM3.82 11H1.674a6.958 6.958 0 01-.656-2.5h2.49c.03.877.138 1.718.312 2.5zm6.853 3.472A7.025 7.025 0 0013.745 12H11.91a9.27 9.27 0 01-.64 1.539 6.688 6.688 0 01-.597.933zM8.5 12h2.355c-.13.367-.286.724-.468 1.068-.552 1.035-1.218 1.65-1.887 1.855V12zm3.68-1h2.146c.365-.767.594-1.61.656-2.5h-2.49a13.653 13.653 0 01-.312 2.5zm2.802-3.5h-2.49A13.653 13.653 0 0012.18 5h2.146c.365.767.594 1.61.656 2.5zM11.27 2.461c.247.464.462.98.64 1.539h1.835a7.024 7.024 0 00-3.072-2.472c.218.284.418.598.597.933zM10.855 4H8.5V1.077c.67.204 1.335.82 1.887 1.855.173.324.33.682.468 1.068z" fill="#000" fill-opacity=".5"/></g><defs><clipPath id="clip0_5097_323"><path fill="#fff" d="M0 0h16v16H0z"/></clipPath></defs></svg>