<svg width="16" height="16" fill="none" xmlns="http://www.w3.org/2000/svg"><g clip-path="url(#clip0_5097_329)"><path fill-rule="evenodd" clip-rule="evenodd" d="M3.646 1.324a.678.678 0 00-1.015-.063L1.597 2.296c-.483.484-.66 1.17-.45 1.77a17.567 17.567 0 004.168 6.608 17.568 17.568 0 006.608 4.168c.601.211 1.286.033 1.77-.45l1.034-1.034a.678.678 0 00-.063-1.015l-2.307-1.794a.678.678 0 00-.58-.122l-2.19.547a1.745 1.745 0 01-1.657-.459L5.474 8.058a1.745 1.745 0 01-.46-1.657l.548-2.19a.678.678 0 00-.122-.58L3.646 1.324zM1.876.507A1.745 1.745 0 014.488.67l1.794 2.306c.33.423.445.974.315 1.494L6.05 6.66a.678.678 0 00.178.643L8.685 9.76a.678.678 0 00.644.178l2.19-.547a1.745 1.745 0 011.493.315l2.306 1.794c.83.645.905 1.87.163 2.611l-1.034 1.034c-.74.74-1.846 1.065-2.877.702a18.632 18.632 0 01-7.01-4.42A18.634 18.634 0 01.14 4.418c-.362-1.03-.037-2.137.703-2.877L1.877.507z" fill="#000" fill-opacity=".5"/></g><defs><clipPath id="clip0_5097_329"><path fill="#fff" d="M0 0h16v16H0z"/></clipPath></defs></svg>